# xmcd
#
# Track frame offsets: 
#        150
#        10801
#        24474
#        39139
#        55740
#        76884
#        89165
#        98221
#        112084
#        123979
#        136168
#        154996
#        166501
#        178386
#        195199
#
# Disc length: 2805 seconds
#
# Revision: 0
# Processed by: cddbd v1.5.2PL0 Copyright (c) Steve Scherf et al.
# Submitted via: ExactAudioCopy v0.95b3
#
DISCID=b50af30f
DTITLE=Slipshod - Hest på Sjøflyhavna
DYEAR=1900
DGENRE=Alternative
TTITLE0=Six More Miles
TTITLE1=They Call Me (Slipshod)
TTITLE2=Horse
TTITLE3=No Longer See The Light
TTITLE4=Hold Me Like You Do
TTITLE5=Victorian Cowgirl
TTITLE6=Blanket Of Sorrow
TTITLE7=Bury Me
TTITLE8=Long Gone Lonesome Blues
TTITLE9=Hey Good Lookin
TTITLE10=Alone And Forsaken
TTITLE11=How To Put The Devil Outside
TTITLE12=Ring Of Fire
TTITLE13=True Love Travels On A Gravel Road
TTITLE14=Rowboat
EXTD=
EXTT0=
EXTT1=
EXTT2=
EXTT3=
EXTT4=
EXTT5=
EXTT6=
EXTT7=
EXTT8=
EXTT9=
EXTT10=
EXTT11=
EXTT12=
EXTT13=
EXTT14=
PLAYORDER=
